<?xml version="1.0" encoding="UTF-8"?>
<svg xmlns="http://www.w3.org/2000/svg" xmlns:xlink="http://www.w3.org/1999/xlink" viewBox="0 0 500 500">
  <defs>
    <style>
      .cls-1, .cls-2 {
        stroke: #2d2a2b;
        stroke-width: 10px;
      }

      .cls-1, .cls-2, .cls-3, .cls-4, .cls-5 {
        stroke-miterlimit: 10;
      }

      .cls-1, .cls-2, .cls-6 {
        fill: #2d2a2b;
      }

      .cls-1, .cls-7, .cls-8 {
        font-family: Apple-Chancery, 'Apple Chancery';
      }

      .cls-1, .cls-8 {
        font-size: 100px;
      }

      .cls-9 {
        fill: url(#radial-gradient);
      }

      .cls-9, .cls-10, .cls-11, .cls-6, .cls-12, .cls-13, .cls-14, .cls-15, .cls-16, .cls-17, .cls-18, .cls-19, .cls-20 {
        stroke-width: 0px;
      }

      .cls-3 {
        stroke-width: 3.2px;
      }

      .cls-3, .cls-4, .cls-5 {
        fill: none;
        stroke: #000;
      }

      .cls-7 {
        font-size: 48px;
      }

      .cls-7, .cls-8, .cls-20 {
        fill: #ffd06e;
      }

      .cls-21 {
        mix-blend-mode: screen;
      }

      .cls-22 {
        isolation: isolate;
      }

      .cls-4 {
        stroke-width: 4.27px;
      }

      .cls-5 {
        stroke-width: 4.8px;
      }

      .cls-11 {
        fill: url(#Gradiente_sem_nome_18);
      }

      .cls-12 {
        fill: #231f20;
      }

      .cls-13 {
        fill: #afafaf;
      }

      .cls-14 {
        fill: #e28b14;
      }

      .cls-15 {
        fill: #b8bfc1;
      }

      .cls-16 {
        fill: #92999b;
      }

      .cls-17 {
        fill: #fff;
      }

      .cls-18 {
        fill: #fff7d3;
      }

      .cls-19 {
        fill: #f0ba46;
      }
    </style>
    <radialGradient id="radial-gradient" cx="250" cy="221.84" fx="250" fy="221.84" r="104.98" gradientUnits="userSpaceOnUse">
      <stop offset="0" stop-color="#fff"/>
      <stop offset=".98" stop-color="#bababa"/>
    </radialGradient>
    <radialGradient id="Gradiente_sem_nome_18" data-name="Gradiente sem nome 18" cx="250" cy="221.84" fx="250" fy="221.84" r="88.59" gradientUnits="userSpaceOnUse">
      <stop offset="0" stop-color="#ff0"/>
      <stop offset=".29" stop-color="#f9d62e"/>
      <stop offset="1" stop-color="#e28b14"/>
    </radialGradient>
  </defs>
  <g class="cls-22">
    <g id="OBJECTS">
      <g>
        <g>
          <circle class="cls-18" cx="250" cy="221.84" r="125.35" transform="translate(-83.64 241.75) rotate(-45)"/>
          <circle class="cls-6" cx="250" cy="221.84" r="120.5"/>
          <circle class="cls-15" cx="250" cy="221.84" r="114.73" transform="translate(-83.64 241.75) rotate(-45)"/>
          <circle class="cls-9" cx="250" cy="221.84" r="104.98"/>
          <path class="cls-16" d="m150.5,236.66c0-57.98,44.55-104.98,99.5-104.98s99.5,47,99.5,104.98c0,9.61-1.23,18.91-3.52,27.75,5.78-13.01,9-27.41,9-42.57,0-57.98-47-104.98-104.98-104.98s-104.98,47-104.98,104.98c0,15.15,3.22,29.56,9,42.57-2.29-8.84-3.52-18.14-3.52-27.75Z"/>
          <path class="cls-17" d="m145.02,221.84c.29-11.58.1-16.4,3.78-30.19,10.17-36.27,38.38-62.12,70.42-71.84,69.16-19.77,134.85,29.4,135.75,98.33,0,2.42,0,3.71,0,3.71-.21-1.85.06-12.5-4.32-27.63-7.79-25.79-23.94-46.25-44.22-59.14-22.3-14.73-46.9-16.12-46.94-16.13-.04,0-4.01-.3-3.76-.28-4.38-.38-15.05-.18-24.63,1.56-.04.02-61.29,9.26-81.12,71.78-4.17,13.8-4.2,19.35-4.98,29.83Z"/>
          <path class="cls-6" d="m145.02,222.49c.29,11.58.1,16.4,3.78,30.19,10.17,36.27,38.38,62.12,70.42,71.84,69.16,19.77,134.85-29.4,135.75-98.33,0-2.42,0-3.71,0-3.71-.21,1.85.06,12.5-4.32,27.63-7.79,25.79-23.94,46.25-44.22,59.14-22.3,14.73-46.9,16.12-46.94,16.13-.04,0-4.01.3-3.76.28-4.38.38-15.05.18-24.63-1.56-.04-.02-61.29-9.26-81.12-71.78-4.17-13.8-4.2-19.35-4.98-29.83Z"/>
          <circle class="cls-6" cx="250" cy="221.84" r="93.42"/>
          <circle class="cls-11" cx="250" cy="221.84" r="88.59"/>
          <g class="cls-21">
            <path class="cls-19" d="m250,137.31s.19,5.28.39,13.21c.09,3.96.23,8.59.3,13.54.08,4.95.18,10.24.27,15.52.06,5.28.13,10.57.19,15.52.03,4.95.07,9.58.09,13.54,0,3.96.01,7.26.02,9.58,0,2.31-.01,3.63-.01,3.63h-2.5s0-1.32-.01-3.63c0-2.31.01-5.61.02-9.58.03-3.96.06-8.58.09-13.54.06-4.95.12-10.24.19-15.52.09-5.28.18-10.57.27-15.52.07-4.95.22-9.58.3-13.54.2-7.92.39-13.21.39-13.21Z"/>
            <path class="cls-19" d="m228.12,140.19s1.55,5.05,3.8,12.66c1.11,3.81,2.44,8.23,3.8,13,1.36,4.76,2.82,9.84,4.27,14.92,1.43,5.09,2.86,10.17,4.2,14.94,1.32,4.78,2.54,9.23,3.6,13.05,1.03,3.83,1.89,7.01,2.5,9.24.59,2.23.93,3.51.93,3.51l-2.41.65s-.35-1.27-.95-3.51c-.59-2.23-1.44-5.42-2.46-9.25-1-3.83-2.16-8.31-3.41-13.1-1.22-4.8-2.53-9.92-3.84-15.04l-3.76-15.06c-1.21-4.8-2.27-9.31-3.21-13.15-1.86-7.71-3.04-12.86-3.04-12.86Z"/>
            <path class="cls-19" d="m207.74,148.64s2.81,4.48,6.94,11.24c2.06,3.39,4.49,7.32,7.03,11.57,2.55,4.25,5.27,8.78,7.99,13.31,2.7,4.54,5.39,9.09,7.92,13.35,2.51,4.27,4.85,8.26,6.85,11.68,1.99,3.43,3.64,6.28,4.8,8.28,1.15,2,1.81,3.15,1.81,3.15l-2.16,1.25s-.66-1.14-1.82-3.14c-1.15-2-2.8-4.87-4.77-8.3-1.96-3.45-4.24-7.46-6.69-11.77-2.43-4.32-5.01-8.93-7.6-13.53-2.56-4.62-5.13-9.24-7.53-13.57-2.41-4.33-4.6-8.4-6.51-11.87-3.79-6.96-6.27-11.63-6.27-11.63Z"/>
            <path class="cls-19" d="m190.23,162.07s3.87,3.6,9.62,9.06c2.86,2.74,6.23,5.91,9.79,9.36,3.56,3.44,7.36,7.11,11.16,10.79,3.78,3.69,7.56,7.38,11.1,10.84,3.53,3.48,6.82,6.72,9.64,9.51,2.81,2.8,5.15,5.13,6.78,6.76,1.63,1.64,2.56,2.58,2.56,2.58l-1.76,1.76s-.94-.93-2.58-2.56c-1.63-1.64-3.96-3.98-6.76-6.78-2.78-2.82-6.03-6.11-9.51-9.64-3.46-3.54-7.15-7.32-10.84-11.1-3.67-3.8-7.34-7.6-10.79-11.16-3.45-3.55-6.62-6.92-9.36-9.79-5.46-5.74-9.06-9.62-9.06-9.62Z"/>
            <path class="cls-19" d="m176.8,179.58s4.67,2.47,11.63,6.27c3.47,1.91,7.55,4.1,11.87,6.51,4.33,2.4,8.95,4.97,13.57,7.53,4.61,2.59,9.21,5.17,13.53,7.6,4.31,2.45,8.33,4.73,11.77,6.69,3.44,1.97,6.3,3.62,8.3,4.77,2,1.16,3.14,1.82,3.14,1.82l-1.25,2.16s-1.15-.66-3.15-1.81c-2-1.16-4.86-2.82-8.28-4.8-3.42-2.01-7.4-4.34-11.68-6.85-4.26-2.53-8.8-5.22-13.35-7.92-4.53-2.72-9.06-5.44-13.31-7.99-4.25-2.54-8.18-4.97-11.57-7.03-6.76-4.13-11.24-6.94-11.24-6.94Z"/>
            <path class="cls-19" d="m168.35,199.96s5.15,1.18,12.86,3.04c3.85.94,8.35,2,13.15,3.21,4.81,1.2,9.93,2.48,15.06,3.76,5.12,1.31,10.24,2.61,15.04,3.84,4.79,1.25,9.27,2.41,13.1,3.41,3.83,1.02,7.02,1.87,9.25,2.46,2.23.6,3.51.95,3.51.95l-.65,2.41s-1.28-.34-3.51-.93c-2.23-.6-5.42-1.46-9.24-2.5-3.82-1.05-8.28-2.28-13.05-3.6-4.77-1.34-9.86-2.77-14.94-4.2-5.08-1.45-10.16-2.91-14.92-4.27-4.76-1.35-9.19-2.69-13-3.8-7.6-2.24-12.66-3.8-12.66-3.8Z"/>
            <path class="cls-19" d="m165.47,221.84s5.28-.19,13.21-.39c3.96-.09,8.58-.23,13.54-.3,4.95-.08,10.24-.18,15.52-.27,5.28-.06,10.57-.13,15.52-.19,4.95-.03,9.58-.07,13.54-.09,3.96,0,7.26-.01,9.58-.02,2.31,0,3.63.01,3.63.01v2.5s-1.32,0-3.63,0c-2.31,0-5.61-.01-9.58-.02-3.96-.03-8.58-.06-13.54-.09-4.95-.06-10.24-.12-15.52-.19-5.28-.09-10.57-.18-15.52-.27-4.95-.07-9.58-.22-13.54-.3-7.92-.2-13.21-.39-13.21-.39Z"/>
            <path class="cls-19" d="m168.35,243.72s5.05-1.55,12.66-3.8c3.81-1.11,8.23-2.44,13-3.8,4.76-1.36,9.84-2.82,14.92-4.27,5.09-1.43,10.17-2.86,14.94-4.2,4.78-1.32,9.23-2.54,13.05-3.6,3.83-1.03,7.01-1.89,9.24-2.5,2.23-.59,3.51-.93,3.51-.93l.65,2.41s-1.27.35-3.51.95c-2.23.59-5.42,1.44-9.25,2.46-3.83,1-8.31,2.16-13.1,3.41-4.8,1.22-9.92,2.53-15.04,3.84-5.13,1.28-10.25,2.56-15.06,3.76-4.8,1.21-9.31,2.27-13.15,3.21-7.71,1.86-12.86,3.04-12.86,3.04Z"/>
            <path class="cls-19" d="m176.8,264.11s4.48-2.81,11.24-6.94c3.39-2.06,7.32-4.49,11.57-7.03,4.25-2.55,8.78-5.27,13.31-7.99,4.54-2.7,9.09-5.39,13.35-7.92,4.27-2.51,8.26-4.85,11.68-6.85,3.43-1.99,6.28-3.64,8.28-4.8,2-1.15,3.15-1.81,3.15-1.81l1.25,2.16s-1.14.66-3.14,1.82c-2,1.15-4.87,2.8-8.3,4.77-3.45,1.96-7.46,4.24-11.77,6.69-4.32,2.43-8.93,5.01-13.53,7.6-4.62,2.56-9.24,5.13-13.57,7.53-4.33,2.41-8.4,4.6-11.87,6.51-6.96,3.79-11.63,6.27-11.63,6.27Z"/>
            <path class="cls-19" d="m190.23,281.61s3.6-3.87,9.06-9.62c2.74-2.86,5.91-6.23,9.36-9.79,3.44-3.56,7.11-7.36,10.79-11.16,3.69-3.78,7.38-7.56,10.84-11.1,3.48-3.53,6.72-6.82,9.51-9.64,2.8-2.81,5.13-5.15,6.76-6.78,1.64-1.63,2.58-2.56,2.58-2.56l1.76,1.76s-.93.94-2.56,2.58c-1.64,1.63-3.98,3.96-6.78,6.76-2.82,2.78-6.11,6.03-9.64,9.51-3.54,3.46-7.32,7.15-11.1,10.84-3.8,3.67-7.6,7.34-11.16,10.79-3.55,3.45-6.92,6.62-9.79,9.36-5.74,5.46-9.62,9.06-9.62,9.06Z"/>
            <path class="cls-19" d="m207.74,295.05s2.47-4.67,6.27-11.63c1.91-3.47,4.1-7.55,6.51-11.87,2.4-4.33,4.97-8.95,7.53-13.57,2.59-4.61,5.17-9.21,7.6-13.53,2.45-4.31,4.73-8.33,6.69-11.77,1.97-3.44,3.62-6.3,4.77-8.3,1.16-2,1.82-3.14,1.82-3.14l2.16,1.25s-.66,1.15-1.81,3.15c-1.16,2-2.82,4.86-4.8,8.28-2.01,3.42-4.34,7.4-6.85,11.68-2.53,4.26-5.22,8.8-7.92,13.35-2.72,4.53-5.44,9.06-7.99,13.31-2.54,4.25-4.97,8.18-7.03,11.57-4.13,6.76-6.94,11.24-6.94,11.24Z"/>
            <path class="cls-19" d="m228.12,303.49s1.18-5.15,3.04-12.86c.94-3.85,2-8.35,3.21-13.15l3.76-15.06c1.31-5.12,2.61-10.24,3.84-15.04,1.25-4.79,2.41-9.27,3.41-13.1,1.02-3.83,1.87-7.02,2.46-9.25.6-2.23.95-3.51.95-3.51l2.41.65s-.34,1.28-.93,3.51c-.6,2.23-1.46,5.42-2.5,9.24-1.05,3.82-2.28,8.28-3.6,13.05-1.34,4.77-2.77,9.86-4.2,14.94-1.45,5.08-2.91,10.16-4.27,14.92-1.35,4.76-2.69,9.19-3.8,13-2.24,7.6-3.8,12.66-3.8,12.66Z"/>
            <path class="cls-19" d="m250,306.37s-.19-5.28-.39-13.21c-.09-3.96-.23-8.58-.3-13.54-.08-4.95-.18-10.24-.27-15.52-.06-5.28-.13-10.57-.19-15.52-.03-4.95-.07-9.58-.09-13.54,0-3.96-.01-7.26-.02-9.58,0-2.31.01-3.63.01-3.63h2.5s0,1.32.01,3.63c0,2.31-.01,5.61-.02,9.58-.03,3.96-.06,8.58-.09,13.54-.06,4.95-.12,10.24-.19,15.52-.09,5.28-.18,10.57-.27,15.52-.07,4.95-.22,9.58-.3,13.54-.2,7.92-.39,13.21-.39,13.21Z"/>
            <path class="cls-19" d="m271.88,303.49s-1.55-5.05-3.8-12.66c-1.11-3.81-2.44-8.23-3.8-13-1.36-4.76-2.82-9.84-4.27-14.92-1.43-5.09-2.86-10.17-4.2-14.94-1.32-4.78-2.54-9.23-3.6-13.05-1.03-3.83-1.89-7.01-2.5-9.24-.59-2.23-.93-3.51-.93-3.51l2.41-.65s.35,1.27.95,3.51c.59,2.23,1.44,5.42,2.46,9.25,1,3.83,2.16,8.31,3.41,13.1,1.22,4.8,2.53,9.92,3.84,15.04l3.76,15.06c1.21,4.8,2.27,9.31,3.21,13.15,1.86,7.71,3.04,12.86,3.04,12.86Z"/>
            <path class="cls-19" d="m292.26,295.05s-2.81-4.48-6.94-11.24c-2.06-3.39-4.49-7.32-7.03-11.57-2.55-4.25-5.27-8.78-7.99-13.31-2.7-4.54-5.39-9.09-7.92-13.35-2.51-4.27-4.85-8.26-6.85-11.68-1.99-3.43-3.64-6.28-4.8-8.28-1.15-2-1.81-3.15-1.81-3.15l2.16-1.25s.66,1.14,1.82,3.14c1.15,2,2.8,4.87,4.77,8.3,1.96,3.45,4.24,7.46,6.69,11.77,2.42,4.32,5.01,8.93,7.6,13.53,2.56,4.62,5.13,9.24,7.53,13.57,2.41,4.33,4.6,8.4,6.51,11.87,3.79,6.96,6.27,11.63,6.27,11.63Z"/>
            <path class="cls-19" d="m309.77,281.61s-3.87-3.6-9.62-9.06c-2.86-2.74-6.23-5.91-9.79-9.36-3.56-3.44-7.36-7.11-11.16-10.79-3.78-3.69-7.56-7.38-11.1-10.84-3.53-3.48-6.82-6.72-9.64-9.51-2.81-2.8-5.15-5.13-6.78-6.76-1.63-1.64-2.56-2.58-2.56-2.58l1.76-1.76s.94.93,2.58,2.56c1.63,1.64,3.96,3.98,6.76,6.78,2.78,2.82,6.03,6.11,9.51,9.64,3.46,3.54,7.15,7.32,10.84,11.1,3.67,3.8,7.34,7.6,10.79,11.16,3.45,3.55,6.62,6.92,9.36,9.79,5.46,5.74,9.06,9.62,9.06,9.62Z"/>
            <path class="cls-19" d="m323.2,264.11s-4.67-2.47-11.63-6.27c-3.47-1.91-7.55-4.1-11.87-6.51-4.33-2.4-8.95-4.97-13.57-7.53-4.61-2.59-9.21-5.17-13.53-7.6-4.31-2.45-8.33-4.73-11.77-6.69-3.44-1.97-6.3-3.62-8.3-4.77-2-1.16-3.14-1.82-3.14-1.82l1.25-2.16s1.15.66,3.15,1.81c2,1.16,4.86,2.82,8.28,4.8,3.42,2.01,7.4,4.34,11.68,6.85,4.26,2.53,8.8,5.22,13.35,7.92,4.53,2.72,9.06,5.44,13.31,7.99,4.25,2.54,8.18,4.97,11.57,7.03,6.76,4.13,11.24,6.94,11.24,6.94Z"/>
            <path class="cls-19" d="m331.65,243.72s-5.15-1.18-12.86-3.04c-3.85-.94-8.35-2-13.15-3.21-4.81-1.2-9.93-2.48-15.06-3.76-5.12-1.31-10.24-2.61-15.04-3.84-4.79-1.25-9.27-2.41-13.1-3.41-3.83-1.02-7.02-1.87-9.25-2.46-2.23-.6-3.51-.95-3.51-.95l.65-2.41s1.28.34,3.51.93c2.23.6,5.42,1.46,9.24,2.5,3.82,1.05,8.28,2.28,13.05,3.6,4.77,1.34,9.86,2.77,14.94,4.2,5.08,1.45,10.16,2.91,14.92,4.27,4.76,1.35,9.19,2.69,13,3.8,7.6,2.24,12.66,3.8,12.66,3.8Z"/>
            <path class="cls-19" d="m334.53,221.84s-5.28.19-13.21.39c-3.96.09-8.58.23-13.54.3-4.95.08-10.24.18-15.52.27-5.28.06-10.57.13-15.52.19-4.95.03-9.58.07-13.54.09-3.96,0-7.26.01-9.58.02-2.31,0-3.63,0-3.63,0v-2.5s1.32,0,3.63-.01c2.31,0,5.61.01,9.58.02,3.96.03,8.58.06,13.54.09,4.95.06,10.24.12,15.52.19,5.28.09,10.57.18,15.52.27,4.95.07,9.58.22,13.54.3,7.92.2,13.21.39,13.21.39Z"/>
            <path class="cls-19" d="m331.65,199.96s-5.05,1.55-12.66,3.8c-3.81,1.11-8.23,2.44-13,3.8-4.76,1.36-9.84,2.82-14.92,4.27-5.09,1.43-10.17,2.86-14.94,4.2-4.78,1.32-9.23,2.54-13.05,3.6-3.83,1.03-7.01,1.89-9.24,2.5-2.23.59-3.51.93-3.51.93l-.65-2.41s1.27-.35,3.51-.95c2.23-.59,5.42-1.44,9.25-2.46,3.83-1,8.31-2.16,13.1-3.41,4.8-1.22,9.92-2.53,15.04-3.84,5.13-1.28,10.25-2.56,15.06-3.76,4.8-1.21,9.31-2.27,13.15-3.21,7.71-1.86,12.86-3.04,12.86-3.04Z"/>
            <path class="cls-19" d="m323.2,179.58s-4.48,2.81-11.24,6.94c-3.39,2.06-7.32,4.49-11.57,7.03-4.25,2.55-8.78,5.27-13.31,7.99-4.54,2.7-9.09,5.39-13.35,7.92-4.27,2.51-8.26,4.85-11.68,6.85-3.43,1.99-6.28,3.64-8.28,4.8-2,1.15-3.15,1.81-3.15,1.81l-1.25-2.16s1.14-.66,3.14-1.82c2-1.15,4.87-2.8,8.3-4.77,3.45-1.96,7.46-4.24,11.77-6.69,4.32-2.43,8.93-5.01,13.53-7.6,4.62-2.56,9.24-5.13,13.57-7.53,4.33-2.41,8.4-4.6,11.87-6.51,6.96-3.79,11.63-6.27,11.63-6.27Z"/>
            <path class="cls-19" d="m309.77,162.07s-3.6,3.87-9.06,9.62c-2.74,2.86-5.91,6.23-9.36,9.79-3.44,3.56-7.11,7.36-10.79,11.16-3.69,3.78-7.38,7.56-10.84,11.1-3.48,3.53-6.72,6.82-9.51,9.64-2.8,2.81-5.13,5.15-6.76,6.78-1.64,1.63-2.58,2.56-2.58,2.56l-1.76-1.76s.93-.94,2.56-2.58c1.64-1.63,3.98-3.96,6.78-6.76,2.82-2.78,6.11-6.03,9.64-9.51,3.54-3.46,7.32-7.15,11.1-10.84,3.8-3.67,7.6-7.34,11.16-10.79,3.55-3.45,6.92-6.62,9.79-9.36,5.74-5.46,9.62-9.06,9.62-9.06Z"/>
            <path class="cls-19" d="m292.26,148.64s-2.47,4.67-6.27,11.63c-1.91,3.47-4.1,7.55-6.51,11.87-2.4,4.33-4.97,8.95-7.53,13.57-2.59,4.61-5.17,9.21-7.6,13.53-2.45,4.31-4.73,8.33-6.69,11.77-1.97,3.44-3.62,6.3-4.77,8.3-1.16,2-1.82,3.14-1.82,3.14l-2.16-1.25s.66-1.15,1.81-3.15c1.16-2,2.82-4.86,4.8-8.28,2.01-3.42,4.34-7.4,6.85-11.68,2.53-4.26,5.22-8.8,7.92-13.35,2.72-4.53,5.44-9.06,7.99-13.31,2.54-4.25,4.97-8.18,7.03-11.57,4.13-6.76,6.94-11.24,6.94-11.24Z"/>
            <path class="cls-19" d="m271.88,140.19s-1.18,5.15-3.04,12.86c-.94,3.85-2,8.35-3.21,13.15l-3.76,15.06c-1.31,5.12-2.61,10.24-3.84,15.04-1.25,4.79-2.41,9.27-3.41,13.1-1.02,3.83-1.87,7.02-2.46,9.25-.6,2.23-.95,3.51-.95,3.51l-2.41-.65s.34-1.28.93-3.51c.6-2.23,1.46-5.42,2.5-9.24,1.05-3.82,2.28-8.28,3.6-13.05,1.34-4.77,2.77-9.86,4.2-14.94,1.45-5.08,2.91-10.16,4.27-14.92,1.35-4.77,2.69-9.19,3.8-13,2.24-7.6,3.8-12.66,3.8-12.66Z"/>
          </g>
        </g>
        <g>
          <path class="cls-5" d="m246.32,348.27c-24.99.05-35.46-1.37-41.4-3.69-2.63-1.03-4.37-3.55-4.4-6.37-.06-4.94-3.64-11.11-3.64-11.11l2.85-109.04c4.09-.88-.05-4.98,0-4.98l.76-19.11c.07-1.84,1.59-3.3,3.43-3.3h84.83c1.84,0,3.36,1.46,3.43,3.3l.76,19.11c.05,0-4.09,4.1,0,4.98l2.85,109.04s-3.58,6.16-3.64,11.11c-.03,2.82-1.78,5.34-4.4,6.37-5.94,2.32-16.42,3.74-41.4,3.69Z"/>
          <line class="cls-10" x1="292.92" y1="213.09" x2="248.63" y2="213"/>
          <path class="cls-10" d="m229.68,308.74s1.03-.08,2.82-.23c1.79-.14,4.36-.33,7.43-.52,3.08-.21,6.66-.41,10.51-.61,3.84-.22,7.95-.4,12.05-.57,4.1-.17,8.2-.35,12.05-.51,3.85-.14,7.43-.27,10.51-.38,6.15-.17,10.25-.28,10.25-.28l.04,5.34s-4.1-.06-10.26-.15c-3.08-.07-6.67-.15-10.51-.24-3.85-.11-7.95-.23-12.05-.35-4.1-.12-8.21-.24-12.05-.41-3.85-.14-7.44-.29-10.52-.47-3.08-.15-5.64-.31-7.44-.42-1.8-.12-2.82-.19-2.82-.19Z"/>
          <path class="cls-10" d="m246.32,330.67s.77-.07,2.13-.19c1.36-.11,3.3-.24,5.61-.47,1.16-.1,2.41-.21,3.74-.32,1.33-.12,2.72-.26,4.17-.39,2.88-.3,5.96-.63,9.04-.95,3.07-.35,6.14-.74,9-1.14,2.86-.37,5.54-.72,7.83-1.02,2.29-.3,4.19-.52,5.53-.68,1.32-.16,2.07-.25,2.07-.25l.66,3.68s-.2.04-.57.12c-.36.09-.89.18-1.57.31-1.35.25-3.28.57-5.61.85-2.33.28-5.05.54-7.97.71-2.92.17-6.04.27-9.16.36-1.56.03-3.12.06-4.65.08-1.53.02-3.04-.02-4.5-.02-2.92-.06-5.64-.1-7.98-.22-4.66-.21-7.76-.47-7.76-.47Z"/>
          <path class="cls-4" d="m296.8,315.8c2.47-2.23,7.98-7.09,19.87-17.42,14.81-12.87,18.97-35.8,19.76-53.46.29-6.35-2.04-12.55-6.44-17.14-4.4-4.59-10.49-7.2-16.85-7.19-6.92.01-13.07,0-14.35-.12-3.2-.27-5.87-2.4-5.87-2.4"/>
          <path class="cls-4" d="m293.55,242.1s3.38-10.15,19.38-10.15,6.85,36.55,1.82,45.09c-5.02,8.54-8.82,19.48-19.99,11.47"/>
          <path class="cls-10" d="m241.87,298.92s.55-.03,1.58-.09c.52-.03,1.15-.06,1.9-.1.74-.06,1.63-.04,2.52-.21,1.83-.32,3.97-1.3,5.59-3.28.77-.95,1.41-2.17,1.74-3.51.16-.67.25-1.38.26-2.1,0-.68-.07-1.56-.1-2.36-.17-3.29-.36-6.86-.52-10.64-.16-3.77-.35-7.76-.49-11.87-.14-4.12-.32-8.37-.43-12.7-.12-4.33-.24-8.72-.35-13.11-.04-2.2-.08-4.39-.12-6.58-.02-1.09-.04-2.19-.06-3.28l-.03-1.63v-.41s-.01-.2-.01-.2c0,.14,0,0,0,.03v-.05s-.01-.1-.01-.1l-.03-.39-.05-.23c-.29-1.51-1.55-2.85-3.06-3.21-.19-.06-.38-.07-.57-.11-.2,0-.36-.03-.66-.03-.53,0-1.05-.01-1.57-.02-1.05-.01-2.09-.03-3.12-.04h-.77c-.11-.02-.5,0-.67.01-.29.04-.71.12-1.06.26-.71.28-1.36.73-1.83,1.33-.49.58-.8,1.3-.93,2.04-.03.19-.04.36-.06.58l-.03.72c-.02.48-.04.95-.06,1.43-.15,3.77-.34,7.34-.52,10.64-.68,13.17-1.42,21.95-1.42,21.95,0,0-.34-8.8-.42-21.99-.03-3.3-.05-6.87-.03-10.65,0-.47,0-.95,0-1.43v-.72c0-.26.02-.58.05-.86.15-1.17.59-2.34,1.33-3.32.72-.99,1.74-1.77,2.9-2.26.59-.24,1.17-.4,1.89-.49.33-.03.45-.04.86-.05h.77c1.03-.02,2.07-.04,3.12-.05.52,0,1.05-.01,1.57-.02.23,0,.6,0,.93.02.33.04.67.07.99.15,2.64.56,4.88,2.76,5.41,5.53l.09.57.04.42.02.28v.2s.02.41.02.41l.04,1.63c.03,1.09.06,2.18.09,3.28.06,2.19.12,4.39.18,6.58.08,4.39.16,8.79.24,13.12.09,4.33.1,8.59.15,12.71.06,4.12.05,8.11.05,11.88.02,3.78,0,7.35-.03,10.65-.01.85.01,1.58-.04,2.47-.06.86-.22,1.68-.47,2.45-.51,1.55-1.33,2.86-2.33,3.91-1.95,2.07-4.45,2.93-6.4,3.08-1.01.09-1.85-.01-2.6-.04-.75-.04-1.38-.08-1.9-.1-1.03-.06-1.58-.09-1.58-.09Z"/>
          <path class="cls-10" d="m213.81,293.13s0,.42.18,1.16c.19.72.65,1.79,1.65,2.7,1.03.94,2.56,1.55,4.49,1.32.5-.03,1.01-.05,1.55-.08.53-.03,1.08-.04,1.52-.14.95-.2,1.88-.68,2.58-1.44.71-.75,1.17-1.77,1.25-2.84.02-.28,0-.5,0-.85-.02-.34-.03-.68-.05-1.02-.03-.68-.07-1.38-.11-2.08-.14-2.81-.31-5.78-.42-8.85-.11-3.07-.27-6.24-.35-9.47-.09-3.23-.18-6.5-.28-9.78-.06-3.28-.11-6.55-.17-9.78-.07-3.23-.05-6.4-.08-9.48-.03-3.07,0-6.04.01-8.86.01-1.41.02-2.78.03-4.11.01-.66.02-1.31.03-1.95,0-.3.02-.68,0-.9,0-.15,0-.33-.02-.45l-.04-.35c-.36-2.05-2.06-3.58-3.8-3.93-.22-.05-.43-.09-.65-.1l-.16-.02s-.1,0-.15,0h-.35c-.4.03-.8.07-1.19.18-.77.21-1.43.58-1.95,1.01-1.05.87-1.56,1.91-1.78,2.62-.1.36-.17.65-.19.85-.03.2-.04.3-.04.3,0,0,0-.1,0-.3,0-.2.02-.5.07-.88.13-.76.46-1.94,1.52-3.05.52-.55,1.22-1.06,2.09-1.42.43-.18.91-.31,1.44-.38l.35-.04c.07,0,.09-.01.21-.02h.2c.27,0,.54,0,.81.04,1.1.12,2.26.57,3.24,1.38,1,.79,1.77,1.98,2.15,3.37l.12.57c.04.19.04.32.06.48.04.41.05.66.07,1,.04.64.08,1.29.12,1.95.07,1.32.14,2.69.22,4.1.14,2.81.31,5.78.42,8.85.11,3.07.28,6.24.35,9.47.09,3.23.18,6.5.28,9.78.06,3.28.11,6.55.17,9.78.07,3.23.05,6.4.08,9.48.03,3.07,0,6.05-.01,8.86,0,.7,0,1.4-.01,2.08,0,.34,0,.68,0,1.02,0,.33-.02.78-.08,1.15-.24,1.56-1.03,2.94-2.09,3.9-1.06.96-2.37,1.52-3.63,1.65-.67.07-1.21,0-1.75-.01-.53-.03-1.05-.05-1.55-.08-.48-.03-1.01-.03-1.52-.13-.5-.09-.97-.25-1.4-.45-.85-.39-1.53-.95-2.02-1.5-1.02-1.17-1.28-2.36-1.38-3.12-.08-.78-.01-1.19-.01-1.19Z"/>
          <path class="cls-10" d="m265.25,260.05s-.36-7.61-.48-19.02c-.03-2.85-.07-5.94-.07-9.21,0-1.63,0-3.31,0-5.03-.02-2.1,1.04-4.29,2.84-5.59.89-.67,1.96-1.12,3.08-1.29.28-.05.56-.07.85-.09h.11s.05,0,.05,0c-.05,0,.12,0,.12,0h.17s.34.02.34.02c.28.03.63.07.92.13.28.07.57.12.84.23,2.21.71,4.03,2.62,4.62,4.95.16.56.22,1.2.24,1.74l.04,1.41c.03.94.05,1.89.08,2.83.05,1.89.1,3.79.16,5.69.07,3.8.14,7.6.2,11.34.08,3.74.07,7.42.11,10.99.04,3.56.03,7.01.02,10.28,0,3.27-.03,6.36-.07,9.21-.06,5.7-.18,10.46-.29,13.79,0,.81-.06,1.63-.28,2.26-.2.64-.48,1.14-.73,1.51-.26.37-.49.63-.65.8-.17.16-.25.24-.25.24,0,0,.07-.09.22-.27.14-.18.33-.46.53-.85.2-.39.4-.9.51-1.52.12-.62.09-1.31.02-2.15-.25-3.32-.6-8.06-.91-13.76-.17-2.85-.34-5.93-.49-9.2-.15-3.26-.33-6.7-.45-10.27-.12-3.56-.3-7.24-.39-10.98-.1-3.74-.21-7.54-.31-11.34-.03-1.9-.07-3.8-.1-5.69-.02-.95-.03-1.89-.05-2.83l-.03-1.41c-.01-.4-.04-.7-.13-1.04-.32-1.31-1.33-2.45-2.6-2.91-.15-.07-.32-.1-.48-.15-.16-.04-.26-.05-.44-.08l-.34-.02h-.17s.11,0,.04,0h-.03s-.06,0-.06,0c-.17,0-.34,0-.5.03-.67.08-1.31.32-1.86.71-1.12.76-1.78,2.04-1.86,3.37-.08,1.71-.16,3.39-.24,5.02-.14,3.26-.32,6.35-.48,9.2-.64,11.39-1.35,18.98-1.35,18.98Z"/>
          <path class="cls-3" d="m295.77,298.92h-3.73c-1.52,0-2.98-.61-4.04-1.7-1.06-1.09-1.64-2.56-1.61-4.08l1.51-66.33c.07-3.07,2.58-5.53,5.65-5.53"/>
          <path class="cls-10" d="m271.66,308.29c1.69,10.45-17.08,20.24-35.45,22.37,23.08,1.25,33.52-.6,44.61-1.78,11.09-1.18,14.94-3.02,14.94-3.02l-.44-17.57h-23.66Z"/>
          <path class="cls-10" d="m288.67,327.76s-4.47,7.35-3.94,11.26c.53,3.91-12.81,3.91-18.5,3.91h-28.82s29.48-4.94,28.82-14.05c6.23-6.94,22.44-1.12,22.44-1.12Z"/>
          <path class="cls-10" d="m265.99,213c5.05,3.29,3.58,8.67,3.58,8.67,0,0-4.32-3.6-4.32,17.38,2.94-11.03,8.63-5.51,9.7,6.94,1.07,12.45,3.69,39.31,3.69,39.31,0,0,2.54,11.86-5.47,13.61l-11.03,2.41s7.65,1.68,6.4,6.97c18.85.32,25,0,25,0l-2.47-90.22-2.4-4.98-22.68-.09Z"/>
          <path class="cls-10" d="m265.34,256.49s.57-15.48,4.93-15.65c4.36-.18,4.93,7.92,4.93,7.92v-23.57l-7.89,3.02-1.97,6.21v22.07Z"/>
          <path class="cls-10" d="m237.52,236.02c1.5-8.7,5.06-9.41,8.8-9.23s3.56,9.78,3.91,17.97,2.49,41.86,0,46.54c-2.49,4.68-9.88,7.71-14.01,7.62,13.36-.45,15.7,3.17,20.1-7.62-.12-7.24-1.69-66.11-1.69-66.11,0,0-1.2-5.17-8-3.91-6.8,1.26-9.3,1.26-9.21,8l.1,6.74Z"/>
          <polygon class="cls-10" points="270.77 213.09 226.57 213.09 272.04 218.07 270.77 213.09"/>
          <polygon class="cls-10" points="271.41 215.58 238.49 218.07 271.66 221.27 271.41 215.58"/>
          <polygon class="cls-10" points="270.55 302.56 241.98 305.41 272.04 306.83 270.55 302.56"/>
          <polygon class="cls-10" points="274.55 299.19 245.98 302.03 276.04 303.46 274.55 299.19"/>
          <path class="cls-10" d="m314.69,301.32c-11.89,4.26-15.36-5.37-14.03-10.03l-5.9-2.79,2.04,27.29,17.89-14.48Z"/>
          <path class="cls-10" d="m294.76,231.94c7.5-6.14,23.24-8,29.65,0,6.4,8,5.6,28.55-5.6,46.69,6.14-15.21,2.79-26.01,2.79-26.01,0,0,2.54-15.88-3.06-18.28-5.6-2.4-16.23-5.87-27.46,10.14-5.89-8.54,3.69-12.54,3.69-12.54Z"/>
          <path class="cls-10" d="m249.31,192.99c31.87,0,32.94,4.27,33.74,8,.8,3.74,0,12.1,0,12.1l9.87,2.49-1.85-23.98-41.77,1.39Z"/>
          <path class="cls-18" d="m246.32,348.27c-24.99.05-35.46-1.37-41.4-3.69-2.63-1.03-4.37-3.55-4.4-6.37-.06-4.94-3.64-11.11-3.64-11.11l2.85-109.04c4.09-.88-.05-4.98,0-4.98l.76-19.11c.07-1.84,1.59-3.3,3.43-3.3h84.83c1.84,0,3.36,1.46,3.43,3.3l.76,19.11c.05,0-4.09,4.1,0,4.98l2.85,109.04s-3.58,6.16-3.64,11.11c-.03,2.82-1.78,5.34-4.4,6.37-5.94,2.32-16.42,3.74-41.4,3.69Z"/>
          <path class="cls-18" d="m334.3,244.82c-.76,16.81-4.67,39.47-19.03,51.95-2.33,2.03-4.48,3.89-6.44,5.61-6.02-.21-8.45-5.22-8.43-9.05,7.18,1.03,10.93-5.7,14.38-11.98.59-1.07,1.2-2.18,1.82-3.23,1.94-3.3,4.36-10.15,5.91-17.65,0,4.56-.75,10.86-3.7,18.17,11.21-18.14,12.01-38.69,5.6-46.69-6.16-7.7-20.94-6.26-28.74-.69l-.25-9.41c2.69,1.01,3.69.9,17.73.87h.04c5.74,0,11.3,2.38,15.27,6.52,3.97,4.15,6.1,9.83,5.84,15.58Z"/>
          <path class="cls-19" d="m245.08,341.34c-20.33,0-31.94-.99-37.64-3.22-.05-4.87-2.21-9.93-3.59-12.66l2.71-103.72c.65-.79,1.15-1.69,1.48-2.69.63-1.91.8-4.74-1.3-8.12l.53-13.3h78.09l.53,13.31c-2.1,3.39-1.92,6.21-1.3,8.12.33,1,.83,1.9,1.48,2.69l2.71,103.72c-1.38,2.74-3.54,7.8-3.6,12.68-5.69,2.21-17.3,3.21-37.63,3.21h-2.48Z"/>
          <path class="cls-14" d="m287.8,287.79l-1.72-66.06c-.65-.79-1.15-1.69-1.48-2.69-.63-1.91-.8-4.73,1.3-8.12l-.04-1.04-49.37-6.29.46,58.04s-.72,37.28,6.22,37.28c9.23,0,8,11.12-16.59,9.82,11.2,5.52,6.23,20.24-5.6,20.15,6.15,2.65,6.31,8.88,5.95,12.08,5.08.25,11.09.37,18.16.37h2.48c11.23,0,19.79-.3,26.17-.95l14.07-52.6Z"/>
          <path class="cls-18" d="m246.93,218.07c0,4.66-3.78,8.44-8.44,8.44s-8.44-3.78-8.44-8.44,3.78-8.44,8.44-8.44,8.44,3.78,8.44,8.44Z"/>
          <path class="cls-18" d="m272.45,266.94c0,3.28-2.66,5.93-5.93,5.93s-5.93-2.66-5.93-5.93,2.66-5.93,5.93-5.93,5.93,2.66,5.93,5.93Z"/>
          <path class="cls-18" d="m248.63,244.21c0,2.32-1.88,4.21-4.21,4.21s-4.21-1.88-4.21-4.21,1.88-4.21,4.21-4.21,4.21,1.88,4.21,4.21Z"/>
          <circle class="cls-18" cx="237.77" cy="283.01" r="4.21"/>
          <circle class="cls-18" cx="270.26" cy="280.77" r="3.21"/>
          <path class="cls-18" d="m224.18,310.04c0,1.77-1.44,3.21-3.21,3.21s-3.21-1.44-3.21-3.21,1.44-3.21,3.21-3.21,3.21,1.44,3.21,3.21Z"/>
          <path class="cls-17" d="m200.24,199.1c-.35,5.32-.53,10.67-.52,16.03,0,3.83.38,12.18,2.38,13.71,2.42,1.85,5.32-2.42,7.76-.61.95.7-1.17,8.78,31.53,2.71,3.24-.6,9.56,3.71,12.8,3.09,4.92-.95,6.2-3.59,11.05-1.83,4.9,1.78,9.97.48,14.91-.82,1.58-.41,3.21-.86,4.54-2.39,3.24-3.7,3.41-11.75,3.23-18.52-.08-2.9-.19-5.98-1.13-8.37-1.31-3.3-3.81-4.3-6.08-4.82-13.68-3.12-27.59,2.03-41.34.06-8.64-1.24-17.52-5.25-25.82-.88l-13.29,2.65Z"/>
          <g>
            <path class="cls-6" d="m331.54,226.29c-4.77-4.98-11.46-7.84-18.35-7.84h-.05c-14.63.03-15.06.24-17.84-1.37l-.03-.97-1.44-.31c.68-1.06,1.57-1.55,1.48-2.88l-.76-19.05c-.12-3.14-2.69-5.6-5.83-5.6h-84.83c-3.15,0-5.71,2.46-5.83,5.6l-.76,19.05c-.09,1.34.82,1.85,1.48,2.88l-1.44.31-2.91,111.61.34.59c.91,1.56,3.28,6.39,3.32,9.93.04,3.82,2.37,7.19,5.93,8.58,10.15,3.96,31.17,3.86,43.58,3.86,22.05,0,33.98-1.13,40.97-3.86,3.56-1.39,5.89-4.76,5.93-8.58.04-3.52,2.41-8.36,3.32-9.93l.34-.59-.28-10.7.33.36c3.11-2.81,9.78-8.66,19.83-17.39,15.5-13.47,19.7-37.33,20.5-54.98.31-6.91-2.25-13.73-7.02-18.72Zm-34.4,61.24l-1.19-45.57c1.15-2.16,5.31-7.88,16.99-7.88,2.3,0,3.9.93,5.04,2.92,4.9,8.57-1.15,32.31-5.06,38.95-.65,1.1-1.27,2.23-1.88,3.33-4.45,8.07-7.18,12.42-13.9,8.24Zm-10.29,54.81c-8.98,3.5-30.91,3.65-40.53,3.53-21.96.06-34.08-1.01-40.53-3.53-1.73-.67-2.85-2.31-2.88-4.16-.05-4.6-2.67-9.88-3.63-11.67l2.79-106.82c2.03-1.26,2.83-4.04.08-7.45l.72-18.18c.02-.56.48-.99,1.03-.99h52.82c24.63.63,25.59,4.5,26.32,7.92.78,3.63.04,11.62,0,12.07l-17.06-.07s.08.06.13.09h-39.55l31.76,3.48-19.84,1.5,29.49,2.85c-.15.09-.3.18-.44.29-1.81,1.3-2.86,3.49-2.84,5.59.04,23.12.29,23.11.56,33.25.32-3.68.61-7.22.85-10.93.67-4.01,1.91-8.19,4.16-8.28,3.95-.16,4.79,6.46,4.91,7.71.51,5.75,1.23,13.46,1.89,20.33,0,.19.02.39.03.58.14,3.26.32,6.35.49,9.2.15,2.85.33,5.46.48,7.77.15,2.31.31,4.33.43,5.99.03.35.05.68.06.98-.67,2.52-2.19,4.82-5.38,5.52-1.3.28-2.44.53-3.45.75l-23.75,2.37,20.09.95s.02.01.03.02l-24.12,2.4,25.18,1.19c-13.38.6-22.11.91-37.48,2.14,0,0,.26.02.74.05,11.85.79,21.46,1.12,32.09,1.44,3.1.09,6.2.19,9.2.28-1.03,9.59-18.43,18.18-35.49,20.16,5.12.28,23.57.69,29.44.72-4.12,7.51-28.23,11.56-28.23,11.56h28.82c5.69,0,19.03,0,18.5-3.91-.33-2.43,1.26-6.18,2.52-8.67,1.56-.17,2.95-.35,4.55-.6-1.01,2.39-2.05,5.55-2.09,8.44-.02,1.85-1.15,3.49-2.88,4.16Zm47.45-97.52c-.76,16.81-4.67,39.47-19.03,51.95-2.33,2.03-4.48,3.89-6.44,5.61-6.02-.21-8.45-5.22-8.43-9.05,7.18,1.03,10.93-5.7,14.38-11.98.59-1.07,1.2-2.18,1.82-3.23,1.94-3.3,4.36-10.15,5.91-17.65,0,4.56-.75,10.86-3.7,18.17,11.21-18.14,12.01-38.69,5.6-46.69-6.16-7.7-20.94-6.26-28.74-.69l-.25-9.41c2.69,1.01,3.69.9,17.73.87h.04c5.74,0,11.3,2.38,15.27,6.52,3.97,4.15,6.1,9.83,5.84,15.58Z"/>
            <path class="cls-6" d="m227.58,226.72c0-.05-.03-.23-.02-.18-1.01-7.61-11.03-7.59-12.19-.94-.05.39-.07.68-.06.89,0,.2,0,.3,0,.3,0,0,.02-.1.05-.3.02-.2.09-.48.19-.85.22-.72.73-1.75,1.78-2.62,1.75-1.43,3.53-1.16,3.65-1.19.08.03,1.81,0,3.23,1.45,1.02.99,1.42,2.16,1.45,3.58,0-.09,0,0,0-.02-.27,20.38.03,33.28.79,54.17.43,12.28,1.35,13.51-.67,15.64-1.64,1.77-3.63,1.55-6.38,1.68-2.58.11-4.8-1.67-5.41-4.05-.1-.37-.14-.66-.16-.85-.02-.2-.03-.3-.03-.3,0,0,0,.1-.02.3,0,.2-.02.5.03.89.1.76.37,1.95,1.38,3.12,1.39,1.6,3,1.98,4.93,2.08,2.56.13,2.69.15,3.29.09,2.83-.28,5.26-2.55,5.73-5.54.16-1.06.12-12.33.11-13.12-.33-36.14-1.68-54.28-1.68-54.23Z"/>
            <path class="cls-6" d="m237.04,298.89c10.59-.23,12.86,1.85,17.32-2.83,3.29-3.47,2.93-6.09,2.87-19.49,0-3.78,0-7.76-.05-11.88-.33-26.36-.72-37.97-.72-37.92l-.02-.28c-.37-4.24-3.78-6.83-7.46-6.69-.14,0-5.64.07-5.56.07-.05,0-.41.02-.36.02-.79.06-1.4.16-2.3.52-4.57,1.91-4.28,6.24-4.28,8.59-.04,8.54.08,21.08.45,32.64.78-10.02,1.39-20.3,1.83-30.23,1.81-4.36,4.62-4.76,7.55-4.62,3.74.18,3.56,9.78,3.91,17.97s2.49,41.86,0,46.54c-2.33,4.39-8.96,7.32-13.19,7.6Z"/>
          </g>
          <g>
            <path class="cls-17" d="m284.29,184.13c-.64-4.29-4.32-7.58-8.78-7.58-1.5,0-2.92.38-4.16,1.03-1.63-2.04-4.13-3.34-6.94-3.34-2.14,0-4.11.76-5.64,2.02-2.27-2.18-5.34-3.52-8.73-3.52-1.3,0-2.55.2-3.73.56-.47-6.89-6.19-12.33-13.2-12.33-5,0-9.35,2.77-11.6,6.86-2.16-1.73-4.89-2.76-7.87-2.76-5.78,0-10.63,3.89-12.13,9.18-.21-.01-.42-.03-.63-.03-4.91,0-8.89,3.98-8.89,8.89,0,3.69,2.24,6.85,5.44,8.2-.18.85-.28,1.73-.28,2.63,0,6.97,5.65,12.62,12.62,12.62,4.31,0,8.11-2.17,10.39-5.47,2.9,3.02,6.97,4.9,11.48,4.9,3.61,0,6.94-1.2,9.6-3.23,2.81,4.49,7.8,7.48,13.5,7.48s11.08-3.24,13.82-8.03c2.2,3.68,6.22,6.15,10.82,6.15,6.97,0,12.62-5.65,12.62-12.62,0-5.22-3.17-9.7-7.7-11.62Z"/>
            <path class="cls-6" d="m254.72,212.36c-5.52,0-10.62-2.47-14.03-6.7-2.74,1.61-5.84,2.45-9.07,2.45-4.16,0-8.08-1.39-11.26-3.95-2.76,2.86-6.58,4.52-10.61,4.52-8.12,0-14.73-6.61-14.73-14.73,0-.48.02-.97.07-1.45-3.23-1.98-5.24-5.5-5.24-9.38,0-5.77,4.47-10.52,10.13-10.97,2.23-5.48,7.63-9.19,13.64-9.19,2.59,0,5.07.66,7.28,1.92,2.88-3.76,7.38-6.02,12.19-6.02,7.21,0,13.37,5.06,14.96,11.9.65-.09,1.32-.13,1.98-.13,3.23,0,6.32,1.05,8.87,2.98,1.66-.96,3.56-1.47,5.5-1.47,2.8,0,5.45,1.05,7.47,2.93,1.16-.41,2.39-.62,3.63-.62,5.01,0,9.39,3.46,10.64,8.23,4.87,2.52,7.96,7.54,7.96,13.09,0,8.12-6.61,14.73-14.73,14.73-4.16,0-8-1.7-10.75-4.67-3.39,4.1-8.48,6.54-13.89,6.54Zm-12.93-12.69l1.23,1.96c2.54,4.06,6.92,6.49,11.7,6.49s9.53-2.67,11.98-6.97l1.8-3.14,1.86,3.11c1.92,3.21,5.29,5.12,9,5.12,5.79,0,10.5-4.71,10.5-10.5,0-4.23-2.51-8.02-6.41-9.67l-1.09-.46-.17-1.18c-.49-3.29-3.36-5.77-6.69-5.77-1.11,0-2.18.26-3.16.79l-1.55.82-1.1-1.37c-1.3-1.62-3.22-2.55-5.29-2.55-1.59,0-3.07.53-4.3,1.54l-1.45,1.19-1.36-1.3c-1.97-1.89-4.55-2.93-7.27-2.93-1.06,0-2.1.16-3.11.47l-2.55.79-.18-2.67c-.4-5.81-5.27-10.36-11.09-10.36-4.05,0-7.79,2.21-9.75,5.77l-1.21,2.2-1.96-1.57c-1.88-1.5-4.15-2.3-6.55-2.3-4.67,0-8.82,3.14-10.09,7.64l-.47,1.66-1.79-.13c-.14,0-.27-.02-.41-.02-3.73,0-6.77,3.04-6.77,6.77,0,2.73,1.63,5.18,4.15,6.24l1.61.68-.36,1.71c-.15.73-.23,1.47-.23,2.19,0,5.79,4.71,10.5,10.5,10.5,3.45,0,6.68-1.7,8.65-4.55l1.47-2.14,1.8,1.87c2.63,2.74,6.16,4.25,9.95,4.25,3.03,0,5.91-.97,8.33-2.8l1.85-1.4Z"/>
          </g>
          <path class="cls-17" d="m211.58,196.41c-3.25,12.11-.71,33.25,5.98,33.35,9.49.15,6.61-19.03,6.61-19.03,0,0,.35,8.35,8.09,7.83,7.41-.5,7.87-7.83,7.87-7.83,0,0,8.8-.98,9.07-10.85"/>
          <path class="cls-12" d="m238.98,208.97c-.6,3.15-1.25,6.19-3.62,7.17-7.48,3.09-10.75-3.92-11.19-5.4-.82,5.54-1.55,17.49-6.87,17.18-4.22-.89-5.69-15.56-5.68-20.66.02-2.57.09-7.98-.03-10.85-5.34,8.44-3.26,34.9,5.69,35.17.48.01,1.6.1,3.1-.59,4.41-2.01,5.47-8.71,5.64-13.54,3.47,3.85,8.3,2.32,8.13,2.35,4.47-.95,6.12-3.3,7.24-7.2,6.35.47,10.5-7,7.82-12.71-.57,5.05-2.43,9.47-7.84,9.74-.91.01-2.4-.68-2.38-.66Z"/>
          <g>
            <path class="cls-6" d="m248.06,177.73c-1.27-1.7-2.05-1.94-2.42-2.22-1.83-1.08-4.73-1.32-6.63-.58-.11.07-2.98.72-5.32,3.84-1.51-1.07-3.22-1.43-5.13-.9-.29.2-1.52.27-3.28,2.72.38-.2.75-.4,1.1-.6l.56-.24c.19-.07.36-.17.55-.21l.55-.16c.18-.05.37-.05.55-.09l.27-.04h.27c.34.03.39-.08,1.51.27l.46.21.44.25c1.71,1.28,1.37,1.43,2.35,2.64,1.67-2.04,1.3-1.86,3.27-3.7.25-.25.57-.4.84-.61.27-.22.6-.34.9-.52,1.81-1.13,5.36-1.25,6.95-.19.05.03.77.42.72.39,1.82,1.32,1.7,1.44,2.73,2.59-.22-.83-.52-1.93-1.25-2.86Z"/>
            <path class="cls-6" d="m278.25,185.87c-.38-3.58-2.7-5.78-5.18-6.34-.21-.06-.42-.1-.64-.13-2.94-.53-6.62,1.21-7.18,4.25.18-.2.37-.48.75-.8,1.74-1.55,4.62-1.79,6.38-1.06.14.05.27.11.4.18.14.06.26.13.38.2,2.96,1.68,2.51,5.45,2.84,7.37,1.4-.57,2.22-1.76,3.5-1.33,1.45.6,2.58,2.93.2,4.24,4.24.17,3.16-6.98-1.47-6.59Z"/>
          </g>
          <path class="cls-12" d="m301.86,301.32c8.4-2.54,21.31-18.98,26.57-33.62-2.69,16.28-10.52,31.23-20.68,35.76-6.83,1.06-5.89-2.13-5.89-2.13Z"/>
          <path class="cls-13" d="m287.95,193.08c-.01,3.82.07,9.96-7.66,11.12-7.74,1.16-11.99-7.78-11.99-7.78,0,0-2.87,6.62-9,8.62-6.14,2.01-8.18.94-8.18.94,0,0,.04-4.8-1.09-6.76,4.03,2.13,15.49-.62,18.96-6.76,3.38,5.78,5.62,6.07,9.84,6.4,6.27.5,9.13-5.78,9.13-5.78Z"/>
          <path class="cls-13" d="m248.63,198.5c-1.42,2.49-1.41,11.74-11.33,8.54.93,5.22-2.45,7.56-4.76,7.83-2.31.27-7.2-1.6-8.8-6.05-.71,4.09-.53,15.74-5.69,16.36-5.16.62-5.34-24.01-5.34-24.01,0,0,1.69,12.41,4.62,12.83,2.93.42,5.91-10.41,5.91-10.41,0,0,1.74,7.37,7.43,6.04,5.69-1.33,4.89-6.04,4.89-6.04,0,0,1.88.9,5.07.52,4.27-.52,8-5.6,8-5.6Z"/>
        </g>
        <g>
          <g>
            <rect class="cls-20" x="128.25" y="400.25" width="53.66" height="1.67"/>
            <path class="cls-20" d="m170.24,401.68c-2.57.35-4.28,1.09-5.3,1.68-.71.41-1.22,1.09-1.42,1.89l-1.41,5.8,5.93-1.82c1.3-.4,2.19-1.6,2.19-2.97v-4.58Z"/>
            <path class="cls-20" d="m170.24,400.48c-2.57-.35-4.28-1.09-5.3-1.68-.71-.41-1.22-1.09-1.42-1.89l-1.41-5.8,5.93,1.82c1.3.4,2.19,1.6,2.19,2.97v4.58Z"/>
            <path class="cls-20" d="m178.57,401.68c-2.57.35-4.28,1.09-5.3,1.68-.71.41-1.22,1.09-1.42,1.89l-1.41,5.8,5.93-1.82c1.3-.4,2.19-1.6,2.19-2.97v-4.58Z"/>
            <path class="cls-20" d="m178.57,400.48c-2.57-.35-4.28-1.09-5.3-1.68-.71-.41-1.22-1.09-1.42-1.89l-1.41-5.8,5.93,1.82c1.3.4,2.19,1.6,2.19,2.97v4.58Z"/>
            <path class="cls-20" d="m161.91,401.68c-2.57.35-4.28,1.09-5.3,1.68-.71.41-1.22,1.09-1.42,1.89l-1.41,5.8,5.93-1.82c1.3-.4,2.19-1.6,2.19-2.97v-4.58Z"/>
            <path class="cls-20" d="m161.91,400.48c-2.57-.35-4.28-1.09-5.3-1.68-.71-.41-1.22-1.09-1.42-1.89l-1.41-5.8,5.93,1.82c1.3.4,2.19,1.6,2.19,2.97v4.58Z"/>
            <path class="cls-20" d="m153.59,401.68c-2.57.35-4.28,1.09-5.3,1.68-.71.41-1.22,1.09-1.42,1.89l-1.41,5.8,5.93-1.82c1.3-.4,2.19-1.6,2.19-2.97v-4.58Z"/>
            <path class="cls-20" d="m153.59,400.48c-2.57-.35-4.28-1.09-5.3-1.68-.71-.41-1.22-1.09-1.42-1.89l-1.41-5.8,5.93,1.82c1.3.4,2.19,1.6,2.19,2.97v4.58Z"/>
            <path class="cls-20" d="m145.26,401.68c-2.57.35-4.28,1.09-5.3,1.68-.71.41-1.22,1.09-1.42,1.89l-1.41,5.8,5.93-1.82c1.3-.4,2.19-1.6,2.19-2.97v-4.58Z"/>
            <path class="cls-20" d="m145.26,400.48c-2.57-.35-4.28-1.09-5.3-1.68-.71-.41-1.22-1.09-1.42-1.89l-1.41-5.8,5.93,1.82c1.3.4,2.19,1.6,2.19,2.97v4.58Z"/>
            <path class="cls-20" d="m137.87,401.53c-1.99-.12-3.4.18-4.25.47-.6.2-1.09.64-1.35,1.22l-1.94,4.17,4.75-.49c1.04-.11,1.9-.88,2.1-1.91l.69-3.46Z"/>
            <path class="cls-20" d="m137.87,400.63c-1.99.12-3.4-.18-4.25-.47-.6-.2-1.09-.64-1.35-1.22l-1.94-4.17,4.75.49c1.04.11,1.9.88,2.1,1.91l.69,3.46Z"/>
            <path class="cls-20" d="m125.29,401.08l4.05,2.53c.89.56,2.04.47,2.83-.22l2.67-2.31-2.67-2.31c-.79-.69-1.94-.78-2.83-.22l-4.05,2.53Z"/>
            <polygon class="cls-20" points="127.36 401.73 116.4 401.08 127.36 400.43 127.36 401.73"/>
            <polygon class="cls-20" points="132.8 406.4 126.3 410.19 132.1 405.4 132.8 406.4"/>
            <polygon class="cls-20" points="132.96 403.98 122.72 408.88 132.37 402.9 132.96 403.98"/>
            <polygon class="cls-20" points="132.37 399.26 122.72 393.27 132.96 398.18 132.37 399.26"/>
            <polygon class="cls-20" points="132.1 396.76 126.3 391.97 132.8 395.76 132.1 396.76"/>
          </g>
          <g>
            <rect class="cls-20" x="297.08" y="400.25" width="53.66" height="1.67"/>
            <path class="cls-20" d="m308.76,401.68c2.57.35,4.28,1.09,5.3,1.68.71.41,1.22,1.09,1.42,1.89l1.41,5.8-5.93-1.82c-1.3-.4-2.19-1.6-2.19-2.97v-4.58Z"/>
            <path class="cls-20" d="m308.76,400.48c2.57-.35,4.28-1.09,5.3-1.68.71-.41,1.22-1.09,1.42-1.89l1.41-5.8-5.93,1.82c-1.3.4-2.19,1.6-2.19,2.97v4.58Z"/>
            <path class="cls-20" d="m300.43,401.68c2.57.35,4.28,1.09,5.3,1.68.71.41,1.22,1.09,1.42,1.89l1.41,5.8-5.93-1.82c-1.3-.4-2.19-1.6-2.19-2.97v-4.58Z"/>
            <path class="cls-20" d="m300.43,400.48c2.57-.35,4.28-1.09,5.3-1.68.71-.41,1.22-1.09,1.42-1.89l1.41-5.8-5.93,1.82c-1.3.4-2.19,1.6-2.19,2.97v4.58Z"/>
            <path class="cls-20" d="m317.09,401.68c2.57.35,4.28,1.09,5.3,1.68.71.41,1.22,1.09,1.42,1.89l1.41,5.8-5.93-1.82c-1.3-.4-2.19-1.6-2.19-2.97v-4.58Z"/>
            <path class="cls-20" d="m317.09,400.48c2.57-.35,4.28-1.09,5.3-1.68.71-.41,1.22-1.09,1.42-1.89l1.41-5.8-5.93,1.82c-1.3.4-2.19,1.6-2.19,2.97v4.58Z"/>
            <path class="cls-20" d="m325.41,401.68c2.57.35,4.28,1.09,5.3,1.68.71.41,1.22,1.09,1.42,1.89l1.41,5.8-5.93-1.82c-1.3-.4-2.19-1.6-2.19-2.97v-4.58Z"/>
            <path class="cls-20" d="m325.41,400.48c2.57-.35,4.28-1.09,5.3-1.68.71-.41,1.22-1.09,1.42-1.89l1.41-5.8-5.93,1.82c-1.3.4-2.19,1.6-2.19,2.97v4.58Z"/>
            <path class="cls-20" d="m333.74,401.68c2.57.35,4.28,1.09,5.3,1.68.71.41,1.22,1.09,1.42,1.89l1.41,5.8-5.93-1.82c-1.3-.4-2.19-1.6-2.19-2.97v-4.58Z"/>
            <path class="cls-20" d="m333.74,400.48c2.57-.35,4.28-1.09,5.3-1.68.71-.41,1.22-1.09,1.42-1.89l1.41-5.8-5.93,1.82c-1.3.4-2.19,1.6-2.19,2.97v4.58Z"/>
            <path class="cls-20" d="m341.13,401.53c1.99-.12,3.4.18,4.25.47.6.2,1.09.64,1.35,1.22l1.93,4.17-4.75-.49c-1.04-.11-1.9-.88-2.1-1.91l-.69-3.46Z"/>
            <path class="cls-20" d="m341.13,400.63c1.99.12,3.4-.18,4.25-.47.6-.2,1.09-.64,1.35-1.22l1.93-4.17-4.75.49c-1.04.11-1.9.88-2.1,1.91l-.69,3.46Z"/>
            <path class="cls-20" d="m353.71,401.08l-4.05,2.53c-.89.56-2.04.47-2.83-.22l-2.67-2.31,2.67-2.31c.79-.69,1.94-.78,2.83-.22l4.05,2.53Z"/>
            <polygon class="cls-20" points="351.64 401.73 362.6 401.08 351.64 400.43 351.64 401.73"/>
            <polygon class="cls-20" points="346.2 406.4 352.7 410.19 346.9 405.4 346.2 406.4"/>
            <polygon class="cls-20" points="346.04 403.98 356.28 408.88 346.63 402.9 346.04 403.98"/>
            <polygon class="cls-20" points="346.63 399.26 356.28 393.27 346.04 398.18 346.63 399.26"/>
            <polygon class="cls-20" points="346.9 396.76 352.7 391.97 346.2 395.76 346.9 396.76"/>
          </g>
        </g>
      </g>
      <g>
        <path class="cls-2" d="m166.66,369.83l6.2-6.64,1.51.35c1.95.5,3.81.86,5.57,1.09,2.64-1.63,4.42-3.58,5.35-5.88s1.77-6.75,2.52-13.38l4.07-36.72c-6.76.49-12.16,2.31-16.19,5.46-4.03,3.15-6.05,7.12-6.05,11.9,0,2.86.72,5.56,2.15,8.09l-7.86,6.92c-.68-2.51-1.03-5.04-1.03-7.62,0-8.79,3.75-15.99,11.25-21.61,7.5-5.62,17.1-8.42,28.78-8.42,15.07,0,22.61,4.32,22.61,12.97,0,7.38-5.23,13.28-15.7,17.7,10.24,3.72,15.35,9.42,15.35,17.11,0,6.26-3.17,11.25-9.52,14.96s-14.84,5.57-25.49,5.57c-6.54,0-14.39-.62-23.54-1.86Zm29.83-31.84l-.72,6.54-.44,4.1c-.55,4.85-1.52,8.25-2.91,10.22-1.38,1.97-4.32,4.09-8.81,6.37,6.45,1.06,12.81,1.58,19.11,1.58,10.18,0,15.27-4.04,15.27-12.11,0-3.48-1.4-6.84-4.19-10.08-2.79-3.24-6.19-5.44-10.21-6.62l-1.27.05-2.35.1-2.15-.1-1.32-.05Zm3.29-29.74l-2.86,25.78c1.92.16,3.58.24,4.98.24,1.56,0,3.44-.11,5.62-.34,6.94-3.99,10.4-8.79,10.4-14.4,0-7.52-6.05-11.29-18.15-11.29Z"/>
        <path class="cls-2" d="m257.98,356.79c.87.52,1.31,1.03,1.31,1.51,0,1.17-1.42,3.48-4.25,6.93-3.81,4.69-7.34,7.03-10.6,7.03-2.38,0-3.56-1.58-3.56-4.73,0-1.33.49-5.43,1.46-12.29l1.9-13.26.49-3.37.39-2.68c.16-1.14.24-2.1.24-2.88,0-1.62-.45-2.44-1.36-2.44-2.53,0-5.25,2.78-8.16,8.35-.62-.55-.92-1.11-.92-1.66,0-1.99,1.83-4.65,5.49-8.01,3.66-3.35,6.58-5.03,8.76-5.03,2.44,0,3.66,1.69,3.66,5.07,0,.65-.13,1.98-.39,4l-.44,3.27c-.03.26-.21,1.58-.54,3.95l-2,13.95-.49,3.12c-.42,3.09-.63,5.15-.63,6.19,0,1.4.41,2.1,1.22,2.1,2.72,0,5.53-3.04,8.41-9.13Zm-9.77-38.82l4.1-10.11c3.65-1.5,6.64-3.56,8.98-6.2.33.46.49.93.49,1.42,0,4.36-4.52,9.33-13.57,14.89Z"/>
        <path class="cls-2" d="m293.57,355.47c.81.55,1.22,1.21,1.22,1.95,0,1.01-1.04,2.73-3.12,5.18-5.57,6.45-11.07,9.67-16.5,9.67-3.32,0-6.05-1.32-8.2-3.96s-3.22-6.01-3.22-10.11c0-7.42,2.81-14.93,8.42-22.53,5.62-7.6,11.17-11.4,16.67-11.4,3.97,0,5.96,2.13,5.96,6.4,0,4.79-2.32,9.46-6.96,14.01-4.64,4.56-10.29,7.73-16.97,9.52.65,7.81,3.74,11.72,9.28,11.72s9.94-3.48,13.43-10.45Zm-22.51-7.23c.94.33,1.81.49,2.59.49,4.04,0,7.57-1.24,10.6-3.71,3.03-2.47,4.54-5.37,4.54-8.69,0-3.81-1.94-5.71-5.81-5.71-2.8,0-5.33,1.67-7.59,5-2.26,3.34-3.7,7.54-4.32,12.62Z"/>
        <path class="cls-2" d="m317.02,344.83c7.22-13.7,14.33-20.56,21.33-20.56,1.82,0,3.64.42,5.47,1.27l-6.88,7.52c-1.04-.59-2.38-.88-4-.88-3.38,0-6.95,2.74-10.71,8.23-3.76,5.49-5.96,11.19-6.61,17.11l-1.32,11.91-7.26,2.44.15-1.46.34-3.17.39-3.17,2.56-23.24.29-2.54c.23-1.92.34-3.48.34-4.69,0-1.99-.55-2.98-1.66-2.98-2.61,0-5.2,2.78-7.77,8.35-.81-.62-1.2-1.25-1.17-1.9.1-1.99,1.92-4.61,5.45-7.89,3.54-3.27,6.33-4.91,8.39-4.91,2.77,0,4.16,1.82,4.16,5.47,0,.88-.08,2.07-.24,3.56l-.34,3.42-.45,4.1-.45,4Z"/>
      </g>
      <text class="cls-1" transform="translate(156.62 372.46)"><tspan x="0" y="0">Bier</tspan></text>
      <text class="cls-8" transform="translate(156.62 371.46)"><tspan x="0" y="0">Bier</tspan></text>
      <text class="cls-7" transform="translate(182.91 414.05)"><tspan x="0" y="0">Haus</tspan></text>
    </g>
  </g>
</svg>